<svg width="800" height="800" viewBox="0 0 48 48" xmlns="http://www.w3.org/2000/svg"><g data-name="Layer 2"><g data-name="invisible box" fill="none"><path d="M0 0h48v48H0z"/><path d="M0 0h48v48H0z"/><path d="M0 0h48v48H0z"/></g><g data-name="icons Q2"><path d="M43.1 13c-1.1-1.8-3.5-2.7-6.6-2.7a19.6 19.6 0 0 0-5.2.7C29.6 5.5 27 2 24 2s-5.6 3.5-7.3 9a19.6 19.6 0 0 0-5.2-.7c-3.1 0-5.5.9-6.6 2.7s.2 6.8 4 11c-3.8 4.2-5.5 8.3-4 11s3.5 2.7 6.6 2.7a19.6 19.6 0 0 0 5.2-.7c1.7 5.5 4.3 9 7.3 9s5.6-3.5 7.3-9a19.6 19.6 0 0 0 5.2.7c3.1 0 5.5-.9 6.6-2.7s-.2-6.8-4-11c3.8-4.2 5.5-8.3 4-11M24 5c1.1 0 3 2.3 4.4 6.8a39 39 0 0 0-4.4 1.6 39 39 0 0 0-4.4-1.6C21 7.3 22.9 5 24 5m6 19c0 1.4-.1 2.7-.2 3.9l-2.6 1.7-3.2 1.6-3.2-1.6-2.6-1.7c-.1-1.2-.2-2.5-.2-3.9s.1-2.7.2-3.9l2.6-1.7 3.2-1.6 3.2 1.6 2.6 1.7c.1 1.2.2 2.5.2 3.9m3-1.7 1.9 1.7-1.9 1.7zm-3.6 9.5-.3 1.5-1.5-.5 1.1-.6Zm-9 1-1.5.5-.3-1.5.7.4ZM15 25.7 13.1 24l1.9-1.7zm3.6-9.5.3-1.5 1.5.5-1.1.6Zm10.1-.4-1.1-.6 1.5-.5.3 1.5ZM7.5 14.5c.5-.7 2-1.2 4-1.2a18.6 18.6 0 0 1 4.5.6c-.3 1.4-.5 2.9-.7 4.5a38.4 38.4 0 0 0-4.3 3.5c-3.1-3.4-4.1-6.3-3.5-7.4m4 20.2c-2 0-3.5-.5-4-1.2s.4-4 3.5-7.4a38.4 38.4 0 0 0 4.3 3.5c.2 1.6.4 3.1.7 4.5a18.6 18.6 0 0 1-4.5.6M24 43c-1.1 0-3-2.3-4.4-6.8a39 39 0 0 0 4.4-1.6 39 39 0 0 0 4.4 1.6C27 40.7 25.1 43 24 43m16.5-9.5c-.5.7-2 1.2-4 1.2a18.6 18.6 0 0 1-4.5-.6c.3-1.4.5-2.9.7-4.5a38.4 38.4 0 0 0 4.3-3.5c3.1 3.4 4.1 6.3 3.5 7.4M37 21.9a38.4 38.4 0 0 0-4.3-3.5c-.2-1.6-.4-3.1-.7-4.5a18.6 18.6 0 0 1 4.5-.6c2 0 3.5.5 4 1.2s-.4 4-3.5 7.4"/><circle cx="24" cy="24" r="3"/></g></g></svg>