<svg xmlns="http://www.w3.org/2000/svg" viewBox="0 0 92.008 92.008" xml:space="preserve"><path d="M46.005 21.672c5.975 0 10.836-4.861 10.836-10.836S51.98 0 46.005 0 35.169 4.861 35.169 10.836s4.861 10.836 10.836 10.836"/><path d="m80.7 10.78-1.279-1.85a2.97 2.97 0 0 0-4.169-.726l-22.381 16.01H39.137L16.755 8.204a2.97 2.97 0 0 0-4.168.726l-1.28 1.851a3.047 3.047 0 0 0 .73 4.191l22.552 16.132v55.904c0 2.757 2.243 5 5 5h.352c2.757 0 5-2.243 5-5V60.842h2.127v26.166c0 2.757 2.243 5 5 5h.352c2.757 0 5-2.243 5-5V31.103L79.972 14.97a3.045 3.045 0 0 0 .728-4.19"/></svg>